<?xml version="1.0" standalone="no"?>
<!DOCTYPE svg PUBLIC "-//W3C//DTD SVG 20010904//EN"
 "http://www.w3.org/TR/2001/REC-SVG-20010904/DTD/svg10.dtd">
<svg version="1.0" xmlns="http://www.w3.org/2000/svg"
 width="2004.000000pt" height="2004.000000pt" viewBox="0 0 2004.000000 2004.000000"
 preserveAspectRatio="xMidYMid meet">
<metadata>
Created by potrace 1.14, written by Peter Selinger 2001-2017
</metadata>
<g transform="translate(0.000000,2004.000000) scale(0.100000,-0.100000)"
fill="#000000" stroke="none">
<path d="M16915 13262 c-3 -3 -22 -7 -43 -8 -62 -3 -153 -13 -160 -18 -4 -2
-34 -7 -66 -11 -33 -3 -62 -8 -66 -10 -6 -4 -20 -7 -91 -20 -112 -21 -418
-116 -503 -156 -22 -11 -44 -19 -48 -19 -8 0 -297 -140 -328 -159 -8 -5 -57
-35 -109 -66 -52 -31 -101 -63 -109 -71 -7 -8 -18 -12 -23 -9 -5 4 -9 2 -9 -3
0 -5 -21 -23 -47 -40 -197 -127 -530 -448 -704 -677 -173 -228 -298 -440 -421
-715 -14 -30 -31 -73 -39 -95 -7 -22 -16 -44 -20 -50 -7 -10 -87 -254 -94
-285 -2 -8 -11 -44 -20 -80 -9 -36 -19 -74 -21 -85 -2 -11 -6 -31 -9 -45 -3
-14 -7 -35 -10 -47 l-4 -23 989 0 989 0 38 68 c20 37 43 73 50 80 7 7 13 16
13 20 0 4 14 22 30 41 17 18 30 37 30 40 0 17 190 199 264 252 44 33 86 63 91
67 6 4 37 21 70 38 33 16 62 32 63 37 2 4 10 7 18 7 8 0 32 9 52 19 47 24 206
73 248 75 17 2 35 5 40 8 21 11 327 17 414 8 48 -5 153 -31 229 -56 73 -24
211 -83 221 -94 3 -3 19 -12 35 -20 114 -56 313 -229 420 -365 26 -33 49 -62
51 -64 2 -2 100 44 219 103 118 58 219 106 225 106 5 0 10 5 10 10 0 6 4 10
10 10 5 0 102 45 214 100 112 55 209 100 215 100 6 0 11 3 11 8 0 4 15 14 33
21 56 25 692 336 754 369 21 12 22 13 5 44 -9 18 -21 37 -27 43 -5 6 -19 28
-30 48 -11 20 -23 37 -27 37 -5 0 -8 4 -8 9 0 12 -61 105 -72 109 -4 2 -8 8
-8 13 0 10 -121 175 -157 214 -10 11 -43 50 -74 85 -104 120 -237 248 -407
390 -32 27 -144 110 -148 110 -3 0 -12 6 -19 13 -29 26 -42 34 -88 61 -26 15
-47 32 -47 37 0 5 -6 9 -12 9 -7 0 -40 17 -73 38 -76 48 -280 152 -365 187
-36 14 -78 32 -95 40 -34 15 -202 75 -226 80 -9 2 -49 13 -90 24 -41 12 -90
26 -109 31 -42 12 -182 40 -229 46 -19 2 -46 6 -60 9 -43 7 -113 15 -162 19
-26 2 -51 6 -55 8 -12 7 -512 7 -519 0z"/>
<path d="M7660 13240 c0 -8 -2 -1467 -3 -3243 l-2 -3227 30 -1 c122 -2 2300 2
2870 6 649 4 826 8 940 20 148 15 182 19 259 31 16 3 37 9 46 14 10 5 20 7 22
4 12 -11 304 72 418 119 14 6 27 11 30 12 15 4 161 77 195 97 265 154 480 387
609 662 29 62 76 180 81 206 2 8 4 16 5 18 2 1 4 7 5 12 1 6 3 11 5 13 1 1 3
9 5 18 1 9 10 41 18 70 15 49 23 92 31 159 1 14 6 41 11 60 4 19 9 50 11 70 8
98 17 272 17 325 0 78 -12 304 -17 330 -2 12 -8 48 -12 80 -4 33 -8 62 -9 65
-1 3 -5 25 -9 50 -12 64 -12 67 -36 150 -11 41 -22 82 -25 90 -10 39 -25 80
-50 140 -41 100 -56 130 -97 198 -21 34 -38 65 -38 67 0 3 -23 37 -52 76 -36
50 -49 75 -42 84 71 100 133 195 127 195 -4 0 -3 4 3 8 24 16 134 266 159 362
2 8 11 40 20 70 14 53 25 98 30 130 1 8 5 31 9 50 17 95 23 140 32 263 9 132
4 422 -11 532 -2 17 -6 53 -10 80 -3 28 -7 57 -10 65 -4 14 -13 59 -20 105 -2
11 -13 54 -24 95 -12 41 -23 85 -26 98 -8 32 -85 220 -108 262 -57 104 -82
145 -89 148 -4 2 -8 9 -8 16 0 7 -9 23 -19 35 -11 12 -34 41 -52 64 -60 77
-223 232 -304 288 -93 65 -197 125 -275 158 -30 13 -75 32 -99 43 -24 11 -51
21 -60 23 -9 2 -43 13 -76 24 -32 12 -68 23 -80 26 -11 2 -29 6 -40 9 -197 46
-329 66 -545 82 -41 3 -900 7 -1907 7 -1624 2 -1833 0 -1833 -13z m3550 -1379
c177 -49 251 -213 253 -556 0 -135 -3 -183 -18 -253 -3 -12 -7 -32 -10 -44
-17 -82 -103 -207 -142 -208 -7 0 -13 -5 -13 -12 0 -6 -3 -8 -6 -5 -4 3 -15 2
-26 -4 -11 -6 -29 -13 -41 -16 -12 -3 -390 -7 -839 -8 l-818 -2 0 36 c-1 45
-1 922 0 1016 l0 70 807 -1 c610 -1 819 -4 853 -13z m-1150 -2583 c0 -7 27 -5
35 3 3 3 25 3 50 -1 24 -4 50 -3 57 1 6 4 18 4 26 0 8 -4 31 -5 52 -1 21 4 44
4 51 -1 7 -4 17 -5 22 -2 16 10 77 8 77 -2 0 -6 3 -5 8 1 4 7 15 8 27 4 11 -4
32 -4 46 0 15 4 32 4 38 0 7 -4 30 -4 51 0 21 4 44 4 51 -1 7 -4 17 -5 22 -2
16 10 77 8 78 -2 0 -5 3 -5 5 2 4 8 13 9 27 4 12 -4 33 -5 46 -2 13 4 50 4 83
1 32 -3 58 -3 58 0 0 3 15 5 33 3 47 -5 71 -5 82 -2 6 2 37 -1 70 -5 74 -9
151 -44 188 -86 36 -40 77 -114 77 -138 0 -10 3 -22 7 -26 4 -3 8 -14 9 -24 2
-9 6 -30 9 -47 19 -99 25 -292 13 -410 -22 -219 -96 -337 -236 -379 -45 -13
-156 -15 -854 -13 l-803 2 0 554 c0 304 2 557 5 561 3 5 92 8 198 7 105 -1
192 0 192 3 0 3 23 5 50 5 28 0 50 -3 50 -7z"/>
<path d="M2408 13220 c-27 -70 -100 -266 -102 -275 -2 -5 -7 -21 -13 -35 -5
-14 -31 -83 -58 -155 -26 -71 -53 -143 -60 -160 -7 -16 -19 -48 -26 -70 -8
-22 -16 -42 -19 -45 -3 -3 -6 -12 -8 -20 -2 -8 -25 -74 -52 -146 -28 -72 -50
-134 -50 -138 0 -5 -6 -22 -14 -39 -8 -18 -31 -77 -51 -132 -21 -55 -48 -128
-61 -162 -13 -34 -24 -68 -24 -76 0 -9 -3 -17 -7 -19 -5 -1 -21 -39 -36 -83
-68 -191 -98 -271 -107 -290 -5 -11 -34 -87 -64 -170 -30 -82 -66 -178 -80
-213 -13 -34 -26 -66 -27 -70 -4 -17 -11 -38 -19 -57 -14 -35 -35 -90 -36 -95
0 -3 -4 -12 -7 -20 -4 -8 -18 -49 -33 -90 -15 -41 -31 -86 -37 -100 -6 -14
-11 -27 -12 -30 -3 -9 -16 -43 -47 -123 -16 -43 -33 -90 -38 -105 -5 -15 -27
-74 -49 -132 -22 -58 -41 -108 -41 -111 0 -4 -7 -23 -15 -43 -8 -20 -15 -38
-15 -41 0 -3 -11 -30 -25 -60 -13 -31 -24 -58 -25 -60 -1 -7 -9 -32 -17 -52
-3 -10 -7 -23 -8 -28 -2 -6 -12 -33 -23 -60 -11 -28 -33 -86 -49 -130 -17 -44
-34 -89 -38 -100 -5 -11 -9 -22 -10 -25 -5 -21 -19 -60 -30 -85 -7 -16 -23
-57 -34 -90 -12 -33 -25 -69 -30 -80 -5 -11 -17 -42 -26 -70 -9 -27 -23 -63
-30 -80 -7 -16 -20 -50 -28 -75 -9 -25 -45 -124 -82 -220 -37 -96 -68 -179
-69 -185 -2 -5 -8 -21 -13 -35 -6 -14 -19 -50 -29 -80 -11 -30 -23 -58 -27
-61 -5 -3 -8 -9 -7 -13 3 -8 -34 -115 -56 -163 -8 -17 -14 -33 -14 -36 0 -3
-4 -16 -9 -29 -5 -13 -9 -26 -10 -31 0 -4 -8 -21 -16 -37 -8 -16 -15 -33 -15
-37 0 -5 -16 -48 -35 -98 -19 -49 -77 -207 -130 -350 -53 -143 -101 -271 -107
-285 -6 -14 -12 -27 -13 -30 -3 -16 -29 -87 -34 -95 -3 -5 -6 -12 -6 -15 0 -7
-34 -100 -46 -125 -5 -11 -20 -54 -35 -95 -14 -41 -32 -88 -39 -105 -7 -16
-18 -44 -23 -62 l-10 -32 944 0 c782 1 944 3 944 14 0 7 3 15 8 17 4 2 15 28
26 58 10 30 23 66 29 80 6 14 11 27 11 30 2 11 49 136 76 205 5 11 38 99 73
195 36 96 111 297 167 445 55 149 103 277 105 285 4 17 81 225 95 255 9 21 44
116 46 125 0 3 6 19 13 35 6 17 16 44 22 60 6 17 15 39 20 50 10 24 70 186 73
200 2 6 8 21 13 35 6 14 23 59 38 100 15 41 39 104 52 140 13 36 38 103 54
150 17 46 33 89 37 95 4 5 7 15 9 20 1 6 20 60 43 120 23 61 58 153 77 205 41
110 82 216 94 245 10 26 209 557 213 570 2 6 6 18 9 28 4 9 10 25 14 35 3 9 7
22 9 27 1 6 28 75 59 155 31 80 58 153 60 163 2 9 7 23 12 30 4 6 8 17 10 22
1 6 8 27 16 48 17 46 24 39 56 -53 12 -36 26 -74 31 -85 9 -20 127 -342 182
-495 17 -47 37 -99 44 -115 7 -17 25 -64 39 -105 14 -41 30 -84 35 -95 4 -11
13 -36 20 -55 7 -19 16 -44 20 -55 16 -40 43 -111 50 -135 5 -14 18 -50 30
-80 12 -30 25 -66 30 -80 4 -14 22 -63 40 -110 17 -47 56 -152 86 -235 30 -82
58 -159 63 -170 15 -32 181 -471 181 -478 0 -4 -400 -7 -890 -7 -490 0 -890
-2 -890 -5 0 -7 39 -90 127 -275 127 -264 137 -285 135 -292 -1 -5 3 -8 8 -8
6 0 10 -4 10 -10 0 -5 25 -62 56 -127 31 -65 76 -158 99 -208 23 -49 63 -132
89 -184 25 -52 46 -100 46 -107 0 -8 5 -14 10 -14 6 0 10 -4 10 -10 0 -5 29
-69 64 -142 35 -73 92 -191 126 -263 34 -71 73 -154 86 -182 14 -29 27 -53 30
-53 3 0 27 46 53 103 27 56 67 141 89 188 22 47 60 126 82 175 23 49 62 132
87 184 25 52 58 122 73 155 15 33 60 127 99 208 39 82 71 150 71 152 0 1 32
69 71 151 39 82 86 181 104 219 18 39 56 120 85 180 29 61 56 121 61 134 5 13
11 22 13 20 2 -2 20 -44 39 -94 19 -49 38 -99 42 -110 5 -11 9 -22 10 -25 1
-3 5 -14 10 -25 4 -11 21 -56 37 -100 16 -44 34 -91 40 -105 6 -14 14 -34 19
-45 7 -17 111 -295 159 -425 9 -25 20 -52 23 -60 14 -38 42 -116 43 -120 0 -3
3 -12 7 -20 18 -47 79 -217 81 -225 1 -5 8 -20 14 -32 7 -13 11 -23 8 -23 -4
0 42 -128 63 -175 5 -11 12 -29 14 -40 3 -11 17 -51 32 -90 15 -38 31 -86 37
-105 5 -19 14 -40 20 -47 12 -15 1898 -18 1898 -3 0 5 -7 24 -15 42 -8 18 -40
103 -71 188 -31 85 -62 169 -69 185 -6 17 -17 44 -23 60 -5 17 -14 39 -18 50
-4 11 -8 22 -9 25 -2 6 -13 35 -30 80 -7 19 -23 62 -35 95 -21 58 -30 81 -49
128 -5 12 -19 51 -31 87 -12 36 -25 70 -29 75 -4 6 -14 30 -21 55 -8 25 -20
56 -27 70 -7 14 -13 29 -13 34 0 8 -32 95 -207 561 -42 110 -76 205 -77 210
-2 6 -10 28 -20 49 -9 22 -19 51 -23 65 -3 14 -9 31 -13 36 -6 9 -63 161 -65
175 -1 3 -9 22 -18 44 -9 21 -17 42 -17 47 0 5 -7 23 -14 41 -17 38 -126 326
-131 348 -3 8 -27 76 -55 150 -56 148 -57 152 -59 163 0 4 -8 21 -17 38 -8 17
-17 38 -19 47 -3 15 -25 74 -94 257 -11 28 -47 124 -81 215 -33 91 -64 172
-67 180 -3 8 -7 20 -9 25 -1 6 -14 39 -27 75 -117 307 -147 390 -147 402 0 7
-7 22 -15 32 -8 11 -15 26 -15 33 0 8 -7 30 -16 51 -10 20 -18 45 -20 54 -2
10 -12 37 -23 60 -16 37 -64 164 -67 178 0 3 -6 18 -12 33 -7 16 -12 34 -12
41 0 6 -4 16 -9 22 -4 5 -23 50 -41 99 -80 221 -207 564 -247 665 -14 36 -33
88 -43 115 -9 28 -61 167 -114 310 -54 143 -110 294 -125 335 -16 41 -32 84
-36 95 -5 11 -9 23 -9 27 -1 3 -5 10 -9 15 -5 4 -490 8 -1079 8 l-1070 0 -10
-25z"/>
<path d="M14007 9363 c21 -104 23 -115 35 -158 6 -22 12 -44 14 -50 1 -5 8
-30 15 -55 7 -25 13 -48 15 -52 1 -5 3 -10 4 -13 1 -3 3 -8 5 -12 14 -53 20
-70 31 -92 8 -14 14 -31 14 -37 0 -6 8 -29 17 -50 9 -22 18 -44 19 -50 5 -26
166 -356 206 -424 84 -141 256 -386 313 -446 5 -6 37 -42 70 -79 136 -155 411
-406 504 -459 9 -5 21 -14 28 -20 33 -29 43 -36 51 -36 5 0 17 -9 27 -20 10
-11 22 -20 26 -20 5 0 41 -21 81 -47 116 -75 309 -174 459 -236 85 -35 280
-106 309 -112 8 -2 42 -10 75 -20 33 -9 73 -18 88 -21 16 -2 33 -7 39 -10 6
-4 21 -8 32 -10 12 -2 59 -10 106 -18 47 -9 105 -18 130 -21 25 -3 54 -8 65
-10 122 -25 660 -26 791 -1 10 2 39 7 64 10 25 4 52 8 60 10 8 1 38 7 65 11
28 5 52 10 55 10 3 1 23 5 45 9 71 14 307 81 365 103 8 4 18 7 23 8 4 2 8 3
10 5 1 1 9 3 17 5 69 15 481 211 501 238 3 5 10 8 14 6 11 -3 268 170 364 245
258 202 481 437 666 701 75 108 175 267 175 279 0 4 -75 43 -167 87 -93 44
-176 84 -185 89 -10 6 -26 14 -35 19 -10 6 -74 37 -143 69 -209 99 -424 202
-442 213 -10 5 -26 13 -35 18 -18 10 -140 68 -433 208 -85 40 -177 85 -203 99
-55 30 -48 33 -117 -56 -106 -138 -297 -297 -440 -364 -25 -12 -56 -28 -70
-36 -14 -8 -29 -15 -35 -16 -5 -1 -23 -8 -40 -15 -16 -6 -34 -13 -40 -15 -5
-1 -31 -9 -57 -18 -95 -33 -257 -54 -393 -50 -160 4 -163 4 -295 30 -126 25
-378 140 -474 216 -16 13 -30 21 -30 19 -3 -11 -199 180 -239 232 -12 16 -31
41 -43 55 -18 24 -103 162 -123 202 -7 13 -129 15 -988 18 l-980 2 14 -67z"/>
</g>
</svg>
