<?xml version="1.0" standalone="no"?>
<!DOCTYPE svg PUBLIC "-//W3C//DTD SVG 20010904//EN"
 "http://www.w3.org/TR/2001/REC-SVG-20010904/DTD/svg10.dtd">
<svg version="1.0" xmlns="http://www.w3.org/2000/svg"
 width="512.000000pt" height="512.000000pt" viewBox="0 0 512.000000 512.000000"
 preserveAspectRatio="xMidYMid meet">
<metadata>
Created by potrace 1.14, written by Peter Selinger 2001-2017
</metadata>
<g transform="translate(0.000000,512.000000) scale(0.100000,-0.100000)"
fill="#000000" stroke="none">
<path d="M1960 2559 l0 -832 518 6 c437 5 526 8 576 22 160 44 257 131 307
276 18 52 23 87 23 184 1 134 -21 228 -70 300 -25 37 -25 40 -9 65 60 92 89
215 81 345 -17 276 -155 419 -436 454 -48 6 -279 11 -537 11 l-453 0 0 -831z
m944 438 c17 -24 21 -43 21 -112 0 -75 -3 -86 -24 -109 l-24 -26 -219 0 -218
0 0 140 0 140 221 -2 222 -3 21 -28z m-17 -642 c26 -18 43 -72 43 -138 0 -63
-22 -115 -55 -127 -15 -6 -118 -10 -231 -10 l-204 0 0 145 0 145 213 0 c175 0
216 -3 234 -15z"/>
<path d="M4280 3380 c-307 -42 -575 -265 -674 -562 -44 -129 -65 -118 217
-118 l242 0 35 47 c137 184 372 204 540 47 l48 -45 208 101 c114 55 210 102
212 105 10 10 -89 143 -146 198 -183 174 -440 260 -682 227z"/>
<path d="M321 2587 c-162 -435 -301 -807 -308 -824 l-13 -33 242 0 243 0 199
536 c110 294 202 537 206 539 3 2 89 -217 190 -488 101 -271 191 -512 201
-537 l17 -45 241 -3 c132 -1 241 0 241 2 0 3 -133 362 -296 798 -163 436 -301
805 -306 821 l-10 27 -276 0 -277 0 -294 -793z"/>
<path d="M3584 2368 c10 -64 61 -182 112 -260 155 -240 410 -378 696 -378 221
1 424 85 580 242 57 57 145 175 136 182 -1 2 -99 49 -215 106 l-213 102 -45
-46 c-25 -24 -71 -57 -103 -73 -49 -24 -69 -28 -142 -28 -76 0 -93 4 -152 33
-65 32 -127 90 -151 140 -10 22 -11 22 -260 22 l-250 0 7 -42z"/>
<path d="M670 2206 c0 -5 217 -456 222 -461 4 -4 218 445 218 458 0 4 -99 7
-220 7 -121 0 -220 -2 -220 -4z"/>
</g>
</svg>
