<?xml version="1.0" standalone="no"?>
<!DOCTYPE svg PUBLIC "-//W3C//DTD SVG 20010904//EN"
 "http://www.w3.org/TR/2001/REC-SVG-20010904/DTD/svg10.dtd">
<svg version="1.0" xmlns="http://www.w3.org/2000/svg"
 width="512.000000pt" height="512.000000pt" viewBox="0 0 512.000000 512.000000"
 preserveAspectRatio="xMidYMid meet">
<metadata>
Created by potrace 1.14, written by Peter Selinger 2001-2017
</metadata>
<g transform="translate(0.000000,512.000000) scale(0.100000,-0.100000)"
fill="#000000" stroke="none">
<path d="M605 3348 c-22 -54 -37 -96 -96 -253 -28 -77 -61 -167 -74 -200 -12
-33 -71 -190 -130 -350 -59 -159 -118 -317 -131 -350 -32 -83 -151 -406 -158
-430 -3 -11 -5 -24 -3 -29 2 -9 464 -13 471 -5 2 4 53 140 122 324 20 55 41
111 46 125 9 24 12 21 46 -45 20 -38 36 -72 37 -75 0 -3 25 -54 54 -115 29
-60 65 -134 79 -164 l26 -54 25 54 c14 30 55 117 91 194 37 77 75 159 85 183
10 23 21 42 24 42 5 0 63 -151 148 -385 14 -38 30 -74 34 -79 10 -11 479 -15
479 -4 0 4 -9 31 -21 60 -11 29 -23 60 -25 68 -3 12 -151 412 -171 460 -3 8
-7 22 -9 30 -2 8 -7 23 -13 35 -11 22 -34 82 -115 305 -30 80 -65 174 -79 210
-14 36 -50 135 -81 220 -31 85 -63 170 -71 188 -8 18 -15 39 -15 47 0 7 -6 17
-12 21 -7 5 -133 8 -280 9 l-267 0 -16 -37z m301 -560 c4 -13 9 -27 10 -33 1
-5 28 -77 59 -160 31 -82 70 -186 86 -230 16 -44 34 -88 39 -97 6 -10 10 -27
10 -38 0 -19 -6 -20 -225 -20 l-225 0 20 53 c11 28 24 61 29 72 5 11 14 36 21
55 7 19 18 49 25 65 8 17 17 42 20 58 4 15 11 30 16 33 5 3 9 15 9 28 0 12 4
26 9 32 4 5 23 53 42 107 18 53 37 97 41 97 3 0 10 -10 14 -22z"/>
<path d="M1958 3366 c-2 -12 -3 -383 -3 -826 l1 -805 489 -1 c356 -1 510 2
562 11 201 36 335 161 371 348 8 43 6 222 -3 272 -8 44 -62 166 -78 176 -6 4
3 29 21 60 45 80 63 152 67 264 7 208 -57 353 -195 440 -44 28 -107 54 -150
61 -14 2 -36 7 -50 11 -14 3 -251 7 -527 8 -501 2 -501 2 -505 -19z m919 -340
c32 -10 53 -77 50 -159 -3 -57 -7 -72 -28 -93 -25 -25 -25 -25 -225 -25 -109
0 -206 0 -215 0 -17 1 -34 51 -17 51 5 0 6 5 3 10 -6 10 -8 63 -6 175 l1 50
208 -1 c114 0 217 -4 229 -8z m10 -671 c56 -39 57 -221 0 -257 -17 -12 -65
-15 -232 -14 l-210 1 0 143 -1 142 211 0 c170 0 215 -3 232 -15z"/>
<path d="M4270 3383 c-52 -8 -172 -44 -218 -65 -162 -74 -300 -203 -395 -370
-25 -43 -87 -212 -87 -237 0 -8 76 -11 255 -11 140 0 255 4 255 9 0 16 65 91
106 121 142 104 340 82 464 -51 l35 -37 170 84 c94 46 176 84 183 84 6 0 12 5
12 10 0 6 6 10 13 10 7 0 23 7 35 16 l22 15 -39 58 c-85 125 -219 237 -358
300 -75 34 -81 35 -182 56 -60 12 -213 17 -271 8z"/>
<path d="M3583 2378 c6 -42 32 -117 65 -187 61 -130 189 -270 313 -344 75 -44
203 -95 256 -102 21 -3 49 -7 63 -10 32 -7 201 -7 220 -1 8 3 32 8 54 11 21 3
42 8 47 11 5 3 22 8 37 10 80 15 241 113 331 203 53 53 148 179 139 185 -1 2
-57 29 -123 61 -66 31 -162 77 -213 102 l-93 45 -44 -45 c-24 -25 -70 -58
-102 -73 -50 -25 -70 -29 -143 -29 -72 0 -94 4 -144 28 -60 28 -149 111 -162
149 -5 17 -21 18 -255 18 l-251 0 5 -32z"/>
</g>
</svg>
